<svg xmlns="http://www.w3.org/2000/svg" version="1.1" xmlns:xlink="http://www.w3.org/1999/xlink" viewBox="0 0 200 200"><rect width="200" height="200" fill="url('#gradient')"></rect><defs><linearGradient id="gradient" gradientTransform="rotate(39 0.5 0.5)"><stop offset="0%" stop-color="#11255b"></stop><stop offset="100%" stop-color="#0a0e27"></stop></linearGradient></defs><g><g fill="#f5eec8" transform="matrix(1.5804211222577444,0,0,1.5804211222577444,29.44354314411663,111.70524481782944)" stroke="#82b7ab" stroke-width="0.25"><path d="M6.74-4.46L6.74-14.22L10.16-14.22L10.16-4.46Q10.16-3.11 9.53-2.04Q8.90-0.98 7.77-0.39Q6.64 0.20 5.25 0.20L5.25 0.20Q2.93 0.20 1.64-0.98Q0.35-2.15 0.35-4.30L0.35-4.30L3.79-4.30Q3.79-3.32 4.13-2.88Q4.46-2.44 5.25-2.44L5.25-2.44Q5.97-2.44 6.35-2.97Q6.74-3.51 6.74-4.46L6.74-4.46ZM21.41 0L18.12 0Q17.94-0.32 17.80-0.95L17.80-0.95Q16.89 0.20 15.26 0.20L15.26 0.20Q13.77 0.20 12.72-0.71Q11.68-1.61 11.68-2.98L11.68-2.98Q11.68-4.70 12.95-5.58Q14.22-6.46 16.64-6.46L16.64-6.46L17.66-6.46L17.66-7.01Q17.66-8.47 16.40-8.47L16.40-8.47Q15.22-8.47 15.22-7.31L15.22-7.31L11.93-7.31Q11.93-8.85 13.24-9.80Q14.54-10.76 16.56-10.76Q18.58-10.76 19.76-9.78Q20.93-8.79 20.96-7.07L20.96-7.07L20.96-2.39Q20.98-0.94 21.41-0.17L21.41-0.17L21.41 0ZM16.05-2.15L16.05-2.15Q16.67-2.15 17.08-2.41Q17.48-2.68 17.66-3.01L17.66-3.01L17.66-4.70L16.70-4.70Q14.98-4.70 14.98-3.15L14.98-3.15Q14.98-2.71 15.28-2.43Q15.59-2.15 16.05-2.15ZM22.80-10.57L25.89-10.57L26.00-9.33Q27.12-10.76 29.01-10.76L29.01-10.76Q31.02-10.76 31.72-9.17L31.72-9.17Q32.79-10.76 34.82-10.76L34.82-10.76Q38.04-10.76 38.13-6.88L38.13-6.88L38.13 0L34.82 0L34.82-6.67Q34.82-7.48 34.55-7.85Q34.28-8.22 33.55-8.22L33.55-8.22Q32.58-8.22 32.10-7.35L32.10-7.35L32.11-7.22L32.11 0L28.81 0L28.81-6.65Q28.81-7.48 28.54-7.85Q28.28-8.22 27.54-8.22L27.54-8.22Q26.59-8.22 26.09-7.35L26.09-7.35L26.09 0L22.80 0L22.80-10.57ZM43.48-10.57L43.48 0L40.18 0L40.18-10.57L43.48-10.57ZM39.98-13.29L39.98-13.29Q39.98-13.99 40.49-14.44Q41.00-14.89 41.81-14.89Q42.62-14.89 43.13-14.44Q43.63-13.99 43.63-13.29Q43.63-12.59 43.13-12.14Q42.62-11.69 41.81-11.69Q41.00-11.69 40.49-12.14Q39.98-12.59 39.98-13.29ZM48.97-10.57L48.97 0L45.67 0L45.67-10.57L48.97-10.57ZM45.48-13.29L45.48-13.29Q45.48-13.99 45.99-14.44Q46.49-14.89 47.30-14.89Q48.12-14.89 48.62-14.44Q49.13-13.99 49.13-13.29Q49.13-12.59 48.62-12.14Q48.12-11.69 47.30-11.69Q46.49-11.69 45.99-12.14Q45.48-12.59 45.48-13.29ZM54.58-14.22L54.58-2.64L60.55-2.64L60.55 0L51.15 0L51.15-14.22L54.58-14.22ZM65.31-10.57L65.31 0L62.01 0L62.01-10.57L65.31-10.57ZM61.82-13.29L61.82-13.29Q61.82-13.99 62.32-14.44Q62.83-14.89 63.64-14.89Q64.45-14.89 64.96-14.44Q65.47-13.99 65.47-13.29Q65.47-12.59 64.96-12.14Q64.45-11.69 63.64-11.69Q62.83-11.69 62.32-12.14Q61.82-12.59 61.82-13.29ZM67.28-10.57L70.36-10.57L70.47-9.33Q71.56-10.76 73.49-10.76L73.49-10.76Q75.14-10.76 75.95-9.78Q76.77-8.79 76.80-6.81L76.80-6.81L76.80 0L73.50 0L73.50-6.67Q73.50-7.47 73.17-7.85Q72.85-8.22 72.00-8.22L72.00-8.22Q71.04-8.22 70.57-7.46L70.57-7.46L70.57 0L67.28 0L67.28-10.57ZM85.17 0L82.86-3.94L81.93-3.01L81.93 0L78.64 0L78.64-15.01L81.93-15.01L81.93-7.04L82.27-7.48L84.75-10.57L88.69-10.57L84.99-6.22L88.94 0L85.17 0Z"></path></g></g></svg>